<svg width="25" height="26" viewBox="0 0 25 26" fill="none" xmlns="http://www.w3.org/2000/svg">
<path fill-rule="evenodd" clip-rule="evenodd" d="M12.4972 6.18824C10.6946 6.18824 8.89624 6.80284 7.43166 8.03174C6.55019 8.7714 5.86891 9.67138 5.39577 10.6569C5.33011 10.6506 5.26621 10.6364 5.19879 10.6364C4.02145 10.6364 3.07349 11.5843 3.07349 12.7617V15.3883C3.07349 16.5656 4.02145 17.5136 5.19879 17.5136C5.26621 17.5136 5.33011 17.499 5.39577 17.4931C5.48048 17.6687 5.56813 17.843 5.66692 18.0142C6.05309 18.7034 7.0848 18.1133 6.68641 17.431C5.05521 14.6057 5.68694 11.0254 8.18604 8.92842C10.6852 6.83136 14.3152 6.83136 16.8144 8.92842C19.3135 11.0254 19.9452 14.6056 18.314 17.431L18.2964 17.4603L18.2847 17.4895C18.2847 17.4895 17.4924 19.2422 15.9368 19.2422L13.9675 19.2245C13.7828 18.9548 13.4873 18.767 13.1344 18.767H11.865C11.2958 18.767 10.8379 19.2264 10.8379 19.7956C10.8379 20.1467 11.0607 20.4133 11.5705 20.4133L15.9367 20.4136C18.2713 20.4136 19.2809 18.1218 19.3269 18.0157V18.0095C19.4248 17.8397 19.511 17.6654 19.5951 17.4914C19.6637 17.4977 19.7305 17.5119 19.8012 17.5119C20.9785 17.5119 21.9265 16.564 21.9265 15.3866V12.76C21.9265 11.5827 20.9785 10.6347 19.8012 10.6347C19.7332 10.6347 19.669 10.646 19.6027 10.6552C19.1307 9.66963 18.4514 8.76975 17.5698 8.03003C16.1053 6.80113 14.2994 6.18652 12.4968 6.18652L12.4972 6.18824ZM9.93566 9.92222C9.47813 9.89234 9.06022 9.98909 8.69503 10.3736C7.72122 11.3989 7.11962 12.7943 7.11962 14.2803C7.11962 15.5061 7.52928 16.8796 8.21937 16.9297C9.2025 17.0012 10.7539 16.3556 12.5002 16.3556C14.3508 16.3556 15.9838 17.08 16.9522 16.9085C17.5391 16.8047 17.8823 15.4018 17.8823 14.2803C17.8823 12.7943 17.2792 11.3989 16.3054 10.3736C15.3316 9.34838 13.9862 10.3736 12.5002 10.3736C11.5715 10.3736 10.6982 9.97228 9.93566 9.92222ZM9.71757 12.4489C10.2604 12.4491 10.7005 12.8891 10.7007 13.432C10.7005 13.9749 10.2604 14.4149 9.71757 14.4151C9.17469 14.4149 8.73464 13.9749 8.73446 13.432C8.73464 12.8891 9.17469 12.4491 9.71757 12.4489ZM15.2829 12.4489C15.8259 12.4491 16.2659 12.8891 16.2661 13.432C16.2659 13.9749 15.8259 14.4149 15.2829 14.4151C14.7401 14.4149 14.3 13.9749 14.2998 13.432C14.3 12.8891 14.7401 12.4491 15.2829 12.4489Z" fill="#27C200"/>
</svg>
