<svg width="154" height="44" viewBox="0 0 154 44" fill="none" xmlns="http://www.w3.org/2000/svg">
<path d="M30.1429 11.4348H31.8571V23H30.1429V11.4348Z" fill="black"/>
<path d="M33 11.1304C33 12.307 32.1046 13.2609 31 13.2609C29.8954 13.2609 29 12.307 29 11.1304C29 9.95383 29.8954 9 31 9C32.1046 9 33 9.95383 33 11.1304Z" fill="black"/>
<path d="M112.143 2.43478H113.857V14H112.143V2.43478Z" fill="black"/>
<path d="M115 2.13043C115 3.30704 114.105 4.26087 113 4.26087C111.895 4.26087 111 3.30704 111 2.13043C111 0.953828 111.895 0 113 0C114.105 0 115 0.953828 115 2.13043Z" fill="black"/>
<path d="M0 36.132V9.53201H7.524V30.166H20.216V36.132H0Z" fill="black"/>
<path d="M51.0631 43.846C49.9738 43.846 48.8718 43.6687 47.7571 43.314C46.6678 42.9847 45.7811 42.5413 45.0971 41.984L47.6051 36.93C48.0358 37.31 48.5298 37.6013 49.0871 37.804C49.6698 38.032 50.2398 38.146 50.7971 38.146C51.5824 38.146 52.2031 37.9687 52.6591 37.614C53.1151 37.2593 53.5078 36.702 53.8371 35.942L54.7871 33.548L55.3571 32.826L62.3491 15.536H69.2271L60.3351 36.968C59.6258 38.7413 58.8024 40.122 57.8651 41.11C56.9531 42.1233 55.9271 42.8327 54.7871 43.238C53.6724 43.6433 52.4311 43.846 51.0631 43.846ZM53.8751 37.006L44.7931 15.536H52.2031L58.8911 32.18L53.8751 37.006Z" fill="black"/>
<path d="M71.4355 36.132V9.53201H85.0396C88.5356 9.53201 91.1449 10.178 92.8675 11.47C94.5902 12.7367 95.4515 14.4087 95.4515 16.486C95.4515 17.854 95.0842 19.0573 94.3495 20.096C93.6402 21.1093 92.6269 21.92 91.3095 22.528C90.0175 23.1107 88.4722 23.402 86.6735 23.402L87.4335 21.578C89.3082 21.578 90.9422 21.8693 92.3355 22.452C93.7289 23.0093 94.8056 23.8327 95.5656 24.922C96.3509 25.986 96.7435 27.2907 96.7435 28.836C96.7435 31.1413 95.8062 32.94 93.9315 34.232C92.0822 35.4987 89.3715 36.132 85.7995 36.132H71.4355ZM78.8835 30.698H85.1915C86.4835 30.698 87.4589 30.4827 88.1175 30.052C88.8015 29.596 89.1435 28.912 89.1435 28C89.1435 27.088 88.8015 26.4167 88.1175 25.986C87.4589 25.53 86.4835 25.302 85.1915 25.302H78.3515V20.096H84.0515C85.3182 20.096 86.2682 19.8807 86.9016 19.45C87.5349 19.0193 87.8515 18.3733 87.8515 17.512C87.8515 16.6507 87.5349 16.0173 86.9016 15.612C86.2682 15.1813 85.3182 14.966 84.0515 14.966H78.8835V30.698Z" fill="black"/>
<path d="M138.068 36.132V15.498H129.898V9.53201H153.724V15.498H145.592V36.132H138.068Z" fill="black"/>
<circle cx="113.5" cy="23.5" r="13.5" fill="#44BCFF"/>
<circle cx="31.5" cy="26.5" r="10.5" fill="#44BCFF"/>
<circle cx="27" cy="25" r="2" fill="black"/>
<circle cx="108" cy="20" r="2" fill="black"/>
<circle cx="35" cy="25" r="2" fill="black"/>
<circle cx="118" cy="20" r="2" fill="black"/>
</svg>
